<?xml version="1.0" encoding="UTF-8"?>
<!-- Created with Inkscape (http://www.inkscape.org/) -->
<svg width="2e3" height="485" version="1.1" xmlns="http://www.w3.org/2000/svg" xmlns:cc="http://creativecommons.org/ns#" xmlns:dc="http://purl.org/dc/elements/1.1/" xmlns:rdf="http://www.w3.org/1999/02/22-rdf-syntax-ns#" xmlns:xlink="http://www.w3.org/1999/xlink">
 <defs>
  <linearGradient id="linearGradient1422" x1="288.82" x2="353.72" y1="278.28" y2="345.74" gradientUnits="userSpaceOnUse">
   <stop stop-color="#87191b" offset="0"/>
   <stop stop-color="#c31f24" offset=".5"/>
   <stop stop-color="#e11e25" offset="1"/>
  </linearGradient>
  <radialGradient id="radialGradient1428" cx="107.45" cy="109.48" r="247.47" gradientTransform="matrix(0 1.5383 -1.5985 0 272.64 -68.386)" gradientUnits="userSpaceOnUse">
   <stop stop-color="#e11e25" offset="0"/>
   <stop stop-color="#cc1e24" offset=".74663"/>
   <stop stop-color="#9b1b1f" offset="1"/>
  </radialGradient>
 </defs>
 <path d="m304.92 247.27 9.3117 8.3955c0.30439 1.3023 6.8252 8.2612 82.372 87.907 29.252 30.839 55.333 57.961 57.958 60.271l4.7723 4.2007c4.9803 4.3839 12.509 4.7908 19.135 4.4481 6.6261-0.34269 13.143-2.5876 18.574-6.3984 8.2726-5.8043 13.859-15.287 14.927-25.336 1.0674-10.049-2.4025-20.494-9.2712-27.906l48.477-46.004c17.793 19.49 27.635 46.035 26.847 72.414-0.78806 26.378-12.197 52.289-31.122 70.682-18.644 18.12-44.37 28.753-70.367 29.085-25.997 0.33153-51.986-9.6422-71.276-27.461-10.649-10.106-25.584-25.901-50.807-52.566-44.683-47.235-54.723-57.97-81.305-85.228l-13.573-13.917" fill="url(#linearGradient1422)"/>
 <path d="m1889.8 344.75c-0.2439-0.6875-7.1525-33.538-15.352-73-8.1999-39.462-15.136-71.747-15.413-71.743-0.2775 4e-3 -7.2105 32.291-15.407 71.75-8.1962 39.459-15.107 72.305-15.357 72.993l-0.4549 1.25h62.428zm-170.77 133.21c0-0.58377 22.471-88.451 49.935-195.26 27.464-106.81 50.238-195.44 50.608-196.95l0.6737-2.75h77.783v0.5488c0 0.30184 22.489 87.939 49.976 194.75 27.487 106.81 50.269 195.67 50.627 197.46l0.6515 3.2613-81.626-0.52265-5.1671-25c-2.8418-13.75-5.7152-27.588-6.3852-30.75l-1.2181-5.75h-91.716l-1.1985 5.75c-0.6591 3.1625-3.5329 17-6.3862 30.75l-5.1877 25-81.369 0.52243zm-153.43-225.43 4.9315-1.4713 3.7844-3.1299 3.7845-3.1299 2.4778-4.8899 2.4779-4.8899 3.07-13.237 0.02-35.379-3.0484-14.62-2.4928-4.2537-2.4929-4.2537-7.0482-6.1884-10.391-3.0858h-39.637v100h39.637l4.9315-1.4713zm-123.57 28.471v-198h121.79l10.356 1.0545c5.6958 0.57997 14.208 1.8913 18.915 2.9141l8.5594 1.8596 16.298 6.2853 7.2915 4.7926 7.2914 4.7926 5.6435 5.9648c13.054 13.797 20.159 29.994 24.508 55.866l1.8439 10.97-0.07 53-1.8008 10-1.8007 10-3.0758 9.3627-3.0759 9.3627-4.6223 7.6908c-2.5423 4.23-6.4061 9.8447-8.5864 12.477l-3.964 4.7865-7.242 5.8558c-3.9831 3.2207-7.9384 6.2456-8.7897 6.722l-1.5477 0.86616 25.139 74.438c13.827 40.941 26.866 79.505 28.975 85.699l3.8357 11.261-82.075-0.52208-48.228-153.5h-26.567v154h-79v-198zm-180 0v-198h79v396h-79zm-232.06 197.75c-0.032-0.1375-19.946-89.125-44.253-197.75l-44.195-197.5 42.909-0.26074c23.6-0.14341 43.02-0.14341 43.155 0 0.1356 0.14341 9.8344 62.919 21.553 139.5l21.306 139.24 0.6156-0.74111c0.3386-0.40761 10.257-63.177 22.041-139.49l21.426-138.75 86.635-8e-3 -0.5366 1.75c-0.571 1.8624-88.598 393.18-88.598 393.85 0 0.42428-81.96 0.5729-82.058 0.1488zm-211.34-134.5c-0.29514-0.9625-7.1228-33.475-15.173-72.25s-14.939-70.828-15.31-71.23l-0.67445-0.72958-14.785 71.23c-8.132 39.176-15.011 72.017-15.288 72.98l-0.50245 1.75h62.27zm-123.07-52.489c26.497-102.99 49.436-192.1 50.976-198.01l2.8001-10.75h77.461l1.1827 4.75c0.6505 2.6125 23.429 91.236 50.619 196.94 27.19 105.71 49.436 192.67 49.436 193.26v1.0694l-81.39-0.52243-5.1919-25c-2.8555-13.75-5.7248-27.588-6.3761-30.75l-1.1842-5.75h-91.716l-1.2228 5.75c-0.67253 3.1625-3.5504 17-6.3954 30.75l-5.1726 25-82.002 0.5219z" fill="#e11e25"/>
 <path d="m71.5 484.86c-34.362-39.831-57.737-89.047-66.894-140.85-9.1577-51.802-4.0737-106.05 14.55-155.25 18.158-47.968 49.132-91.026 88.881-123.44 39.749-32.413 88.102-54.598 138.84-62.082 88.928-13.118 183.74 16.138 248.22 78.962zm22.757-112.7c-26.56-50.405-33.144-104.87-13.613-158.39 13.669-37.458 42.947-77.115 74.971-100.87 32.024-23.757 69.08-38.763 108.88-41.108 40.629-2.3935 81.903 7.5336 117 28.14z" fill="url(#radialGradient1428)" fill-rule="evenodd"/>
</svg>