<?xml version="1.0" encoding="UTF-8" standalone="no"?>
<!DOCTYPE svg PUBLIC "-//W3C//DTD SVG 20010904//EN" "http://www.w3.org/TR/2001/REC-SVG-20010904/DTD/svg10.dtd">
<svg xmlns="http://www.w3.org/2000/svg" version="1.0" width="120px" viewBox="0 0 1331.000000 392.000000" preserveAspectRatio="xMidYMid meet">
	<g transform="translate(0.000000,392.000000) scale(0.100000,-0.100000)" fill="#035ba9" stroke="none">
		<path d="M963 2676 c-318 -61 -581 -252 -716 -521 -194 -389 -107 -886 205   -1169 186 -169 390 -253 643 -263 251 -10 460 48 665 183 68 45 193 148 198   165 5 13 -267 299 -284 299 -8 0 -47 -25 -87 -55 -263 -203 -556 -207 -758   -10 -120 116 -169 236 -170 411 0 109 12 165 58 262 82 175 268 292 461 292   158 0 303 -65 442 -196 l55 -52 143 170 144 170 -24 25 c-47 52 -184 146 -282   193 -161 78 -259 101 -456 106 -112 2 -188 -1 -237 -10z"/>
		<path d="M1950 2226 c0 -2 137 -326 305 -721 168 -394 305 -722 305 -727 0   -31 -68 -133 -104 -157 -72 -47 -202 -30 -279 37 -11 10 -21 12 -27 6 -20 -20   -190 -306 -190 -319 0 -33 144 -111 260 -141 85 -22 253 -22 340 0 36 9 90 28   120 43 74 36 195 159 240 243 19 36 181 441 361 900 l328 835 -232 3 c-127 1   -237 0 -244 -2 -6 -3 -82 -220 -169 -483 -86 -263 -159 -473 -161 -468 -2 6   -82 221 -177 480 l-173 470 -252 3 c-138 1 -251 1 -251 -2z"/>
		<path d="M3778 2674 c-5 -4 -8 -441 -8 -971 l0 -963 250 0 250 0 0 270 0 270   191 -2 191 -3 132 -251 c72 -139 138 -259 145 -268 12 -14 48 -16 293 -16   l279 0 -12 23 c-10 18 -320 508 -375 591 -13 21 -11 24 50 64 131 86 225 228   261 395 26 120 17 326 -18 430 -55 160 -146 261 -302 338 -181 89 -201 91   -800 96 -286 3 -523 1 -527 -3z m1023 -420 c63 -29 114 -77 141 -132 19 -39   23 -63 23 -137 -1 -139 -46 -220 -153 -272 -57 -28 -57 -28 -299 -31 l-243 -4   0 302 0 302 243 -4 c221 -3 246 -5 288 -24z"/>
		<path d="M6335 2253 c-169 -14 -345 -57 -495 -122 -51 -22 -94 -42 -97 -44 -8   -9 129 -317 142 -317 7 0 41 13 76 29 336 152 629 99 642 -115 l2 -39 -280 -6   c-297 -7 -327 -11 -441 -63 -168 -77 -241 -207 -232 -416 4 -97 8 -114 40   -181 80 -169 243 -259 468 -259 170 0 305 44 403 131 l47 41 0 -76 0 -76 235   0 235 0 0 538 c0 572 -1 586 -51 688 -32 67 -128 166 -196 202 -130 68 -316   100 -498 85z m273 -933 c6 -102 -48 -184 -154 -236 -105 -51 -253 -39 -307 26   -68 81 -56 193 26 237 33 18 185 31 352 29 l80 -1 3 -55z"/>
		<path d="M8430 2424 l0 -366 -57 53 c-63 57 -167 110 -251 128 -85 18 -238 14   -326 -9 -126 -32 -201 -74 -292 -165 -127 -126 -182 -255 -206 -477 -30 -275   59 -544 231 -699 235 -214 635 -225 847 -24 l54 51 0 -88 0 -88 245 0 245 0   -2 1023 -3 1022 -242 3 -243 2 0 -366z m-214 -581 c69 -23 153 -109 184 -188   20 -50 24 -78 25 -175 0 -108 -2 -119 -31 -180 -41 -87 -83 -133 -152 -167   -48 -24 -70 -28 -137 -28 -104 0 -177 33 -235 106 -64 82 -84 146 -85 274 0   105 2 114 34 183 40 84 106 152 174 175 57 21 162 21 223 0z"/>
		<path d="M9826 2249 c-114 -11 -271 -49 -385 -93 -76 -30 -148 -62 -159 -71   -8 -7 132 -315 143 -315 7 0 41 13 76 29 280 127 549 113 617 -30 11 -24 22   -62 24 -84 l3 -40 -275 -5 c-296 -6 -349 -14 -454 -67 -157 -79 -226 -198   -226 -389 0 -150 39 -244 139 -337 91 -85 214 -127 371 -127 170 0 305 44 403   131 l47 41 0 -76 0 -76 235 0 235 0 0 533 c0 440 -3 543 -15 590 -58 222 -235   355 -518 386 -107 12 -132 12 -261 0z m322 -929 c4 -73 -19 -129 -74 -180 -82   -76 -190 -105 -294 -80 -96 23 -151 101 -135 189 16 90 59 114 220 122 66 3   156 5 200 5 l80 -1 3 -55z"/>
		<path d="M11840 2250 c-156 -21 -265 -80 -362 -197 l-38 -45 0 111 0 111 -245   0 -245 0 2 -742 3 -743 243 -3 242 -2 0 395 c0 367 1 398 20 446 56 148 176   225 368 236 l92 6 -2 215 c-2 133 -7 216 -13 217 -5 1 -35 -1 -65 -5z"/>
		<path fill="#009345" d="M11480 2658 c-69 -36 -111 -132 -94 -218 9 -41 20 -38 28 8 7 46 36  86 79 108 74 39 216 -12 364 -131 134 -107 239 -242 318 -408 122 -253 94  -438 -66 -441 -62 -1 -64 -20 -5 -35 105 -26 185 -1 227 72 33 58 34 189 0  297 -57 187 -165 355 -336 525 -158 157 -279 228 -412 241 -48 5 -66 2 -103  -18z M11413 3506 c-147 -46 -226 -179 -227 -381 -1 -113 12 -238 23 -230  5 2 11 44 13 92 10 155 61 249 166 300 300 147 927 -283 1290 -884 217 -360  308 -718 237 -925 -20 -58 -84 -131 -139 -161 -56 -30 -212 -31 -301 -3 l-60  20 64 7 c164 20 241 122 241 320 0 365 -337 920 -741 1219 -106 78 -263 156  -359 176 -251 53 -391 -86 -365 -362 4 -41 10 -74 15 -74 4 0 11 28 14 63 12  106 60 182 133 213 78 33 237 3 361 -68 83 -47 205 -141 294 -226 355 -339  575 -862 459 -1090 -42 -83 -113 -118 -222 -109 -38 3 -71 2 -74 -3 -6 -10 57  -36 111 -45 21 -4 44 -13 50 -21 16 -20 132 -71 221 -96 56 -16 105 -22 173  -22 83 0 103 3 155 27 70 33 95 54 135 117 43 67 61 148 62 275 0 200 -57 402  -188 665 -134 268 -287 481 -503 703 -268 274 -511 434 -757 497 -89 23 -217  25 -281 6z"/>
	</g>
</svg>