<svg width="239" height="77" viewBox="0 0 239 77" fill="none" xmlns="http://www.w3.org/2000/svg">
<g clip-path="url(#clip0_4503_208)">
<path d="M75.01 6.02C77.41 9.17 78.75 14.31 78.75 20.33C78.75 27.16 76.59 32.77 72.73 35.86C69.81 38.2 65.37 39.48 60.12 39.48C52.64 39.48 46.75 37.02 43.71 32.65C41.43 29.44 40.32 25.17 40.32 19.98C40.32 12.51 42.37 6.84 46.22 3.8C49.25 1.35 54.04 0 59.53 0C66.48 0 72.03 2.16 75.01 6.02ZM51.24 10.51C50.01 12.44 49.43 15.53 49.43 19.68C49.43 28.79 52.58 32.94 59.59 32.94C66.6 32.94 69.64 28.79 69.64 19.8C69.64 10.81 66.54 6.6 59.59 6.6C55.79 6.6 52.81 8 51.24 10.51ZM91.68 39.23H83.38V0.28H102.83C109.66 0.28 112.06 0.98 114.63 3.84C116.91 6.29 118.13 9.5 118.13 12.95C118.13 17.04 116.5 20.83 113.81 23.11C111.53 25.04 109.43 25.62 104.99 25.62H91.68V39.23ZM102.95 18.68C105.17 18.68 106.45 18.39 107.33 17.57C108.38 16.69 109.02 14.83 109.02 12.67C109.02 10.1 107.97 8.23 106.16 7.59C105.52 7.36 104.46 7.24 103.12 7.24H91.68V18.69H102.95V18.68ZM154.57 0.29H146.28V16.23H131.27V0.29H122.98V39.24H131.27V23.18H146.28V39.24H154.57V0.29ZM194.01 6.02C196.41 9.17 197.75 14.31 197.75 20.33C197.75 27.16 195.59 32.77 191.73 35.86C188.81 38.2 184.37 39.48 179.11 39.48C171.64 39.48 165.74 37.02 162.71 32.65C160.43 29.44 159.32 25.17 159.32 19.98C159.32 12.51 161.37 6.84 165.22 3.8C168.26 1.35 173.05 0 178.54 0C185.49 0 191.03 2.16 194.01 6.02ZM170.25 10.51C169.02 12.44 168.44 15.53 168.44 19.68C168.44 28.79 171.59 32.94 178.6 32.94C185.61 32.94 188.65 28.79 188.65 19.8C188.65 10.81 185.56 6.6 178.6 6.6C174.81 6.6 171.83 8 170.25 10.51ZM0.85 39.24H21.85C27.74 39.24 30.24 38.88 32.21 37.63C35.3 35.73 37.27 32 37.27 27.77C37.27 24.32 36.08 20.97 34.29 19.19C31.97 16.81 28.81 15.92 22.98 15.92H16.61C13.75 15.92 11.65 15.8 10.46 15.27C9.03 14.61 8.2 13.35 8.2 11.57C8.2 9.49 9.21 8.12 10.88 7.7C12.13 7.41 13.58 7.41 17.33 7.35H36.13V0.25H15.42C10.78 0.25 8.7 0.43 6.91 1.08C2.8 2.51 0 6.73 0 11.79C0 15.24 1.37 18.3 3.75 20.38C5.83 22.16 8.93 23 13.69 23H22.16C24.07 23 25.61 23.24 26.45 23.71C28.05 24.48 29.01 25.92 29.01 27.77C29.01 29.32 28.3 30.43 27.05 31.2C26.04 31.86 24.31 32.16 21.16 32.16H0.85V39.24ZM201.73 39.24H222.73C228.62 39.24 231.12 38.88 233.09 37.63C236.18 35.73 238.15 32 238.15 27.77C238.15 24.32 236.96 20.97 235.17 19.19C232.85 16.81 229.69 15.92 223.86 15.92H217.49C214.63 15.92 212.53 15.8 211.34 15.27C209.91 14.61 209.08 13.35 209.08 11.57C209.08 9.49 210.09 8.12 211.76 7.7C213.01 7.41 214.46 7.41 218.21 7.35H237.01V0.25H216.31C211.67 0.25 209.59 0.43 207.8 1.08C203.69 2.51 200.89 6.73 200.89 11.79C200.89 15.24 202.26 18.3 204.64 20.38C206.72 22.16 209.82 23 214.58 23H223.05C224.96 23 226.5 23.24 227.34 23.71C228.94 24.48 229.9 25.92 229.9 27.77C229.9 29.32 229.19 30.43 227.94 31.2C226.93 31.86 225.2 32.16 222.05 32.16H201.74V39.24H201.73Z" fill="#004FB5"/>
<path d="M12.84 55.77H19.15C23.86 55.77 25.37 58.78 25.37 61.56V66.46C25.37 69.24 23.86 72.25 19.15 72.25H12.84V55.77ZM19.15 70.44C22.3 70.44 23.29 68.34 23.29 66.34V61.68C23.29 59.68 22.3 57.58 19.15 57.58H14.91V70.44H19.15Z" fill="#004FB5"/>
<path d="M32.78 72.5101C28.78 72.5101 27.6 70.0101 27.6 67.7101V64.4601C27.6 62.1301 28.87 59.5601 32.76 59.5601C36.65 59.5601 37.85 62.1301 37.85 64.4601V66.6001H29.54V67.8901C29.54 69.3701 30.34 70.9301 32.79 70.9301C35.24 70.9301 35.94 69.7101 35.94 68.6501V68.4601H37.78V68.7201C37.78 70.3901 36.74 72.5101 32.79 72.5101H32.78ZM29.53 65.0401H35.96V64.1901C35.96 62.7301 35.16 61.1101 32.76 61.1101C30.36 61.1101 29.53 62.7601 29.53 64.1901V65.0401Z" fill="#004FB5"/>
<path d="M43.28 61.3701V72.2501H41.3V61.3701H39.56V59.8401H41.3V59.3501C41.3 57.0201 42.43 55.0601 45.99 55.0601H47.03V56.6801H45.95C44 56.6801 43.29 57.6901 43.29 59.2501V59.8401H46.63V61.3701H43.29H43.28Z" fill="#004FB5"/>
<path d="M53.1 72.5101C49.1 72.5101 47.92 70.0101 47.92 67.7101V64.4601C47.92 62.1301 49.19 59.5601 53.08 59.5601C56.97 59.5601 58.17 62.1301 58.17 64.4601V66.6001H49.86V67.8901C49.86 69.3701 50.66 70.9301 53.11 70.9301C55.56 70.9301 56.26 69.7101 56.26 68.6501V68.4601H58.1V68.7201C58.1 70.3901 57.06 72.5101 53.11 72.5101H53.1ZM49.85 65.0401H56.28V64.1901C56.28 62.7301 55.48 61.1101 53.08 61.1101C50.68 61.1101 49.85 62.7601 49.85 64.1901V65.0401Z" fill="#004FB5"/>
<path d="M68.59 70.8601C67.98 71.8501 66.73 72.5101 64.52 72.5101C61.37 72.5101 60.33 70.8401 60.33 68.7701C60.33 66.3701 61.72 65.0301 64.83 65.0301H68.48V63.9901C68.48 62.4401 67.77 61.1401 65.51 61.1401C63.44 61.1401 62.5 62.0801 62.5 63.1401V63.3301H60.66V63.1401C60.66 61.2601 62.14 59.5601 65.56 59.5601C69.23 59.5601 70.43 61.5601 70.43 64.0601V72.2501H68.69L68.6 70.8601H68.59ZM68.47 67.8201V66.6001H65.1C63.03 66.6001 62.3 67.4001 62.3 68.7201C62.3 69.9401 62.89 70.9301 65.01 70.9301C67.55 70.9301 68.47 69.5901 68.47 67.8201Z" fill="#004FB5"/>
<path d="M79.93 72.25H78.52C75.04 72.25 74.19 70.51 74.19 68.39V61.37H72.4V59.84H74.19V56.59H76.14V59.84H79.53V61.37H76.14V68.27C76.14 69.78 76.75 70.62 78.8 70.62H79.93V72.24V72.25Z" fill="#004FB5"/>
<path d="M99.9 67.07V67.61C99.9 69.94 98.44 72.51 93.87 72.51C89.3 72.51 87.72 69.5 87.72 66.69V61.3C87.72 58.52 89.23 55.51 93.87 55.51C98.51 55.51 99.9 58.01 99.9 60.27V60.74H97.88V60.36C97.88 58.92 96.89 57.32 93.88 57.32C90.87 57.32 89.78 59.37 89.78 61.3V66.69C89.78 68.64 90.79 70.69 93.88 70.69C96.97 70.69 97.88 69.04 97.88 67.51V67.06H99.9V67.07Z" fill="#004FB5"/>
<path d="M104.82 76.4899L106.42 72.1999L101.88 59.8199H103.95L107.36 69.66L110.96 59.8199H112.91L106.69 76.4899H104.81H104.82Z" fill="#004FB5"/>
<path d="M116.82 70.6701L116.73 72.2501H114.99V55.0601H116.94V61.3201C117.65 60.2401 118.99 59.5501 120.87 59.5501C123.79 59.5501 125.39 61.6201 125.39 64.3501V67.6901C125.39 70.4401 123.74 72.4901 120.8 72.4901C118.82 72.4901 117.48 71.7801 116.82 70.6501V70.6701ZM123.44 67.2801V64.8101C123.44 62.9701 122.8 61.3001 120.31 61.3001C117.82 61.3001 116.94 63.0001 116.94 64.9001V67.1601C116.94 69.0701 117.76 70.7601 120.31 70.7601C122.86 70.7601 123.44 69.1601 123.44 67.2801Z" fill="#004FB5"/>
<path d="M132.62 72.5101C128.62 72.5101 127.44 70.0101 127.44 67.7101V64.4601C127.44 62.1301 128.71 59.5601 132.6 59.5601C136.49 59.5601 137.69 62.1301 137.69 64.4601V66.6001H129.38V67.8901C129.38 69.3701 130.18 70.9301 132.63 70.9301C135.08 70.9301 135.78 69.7101 135.78 68.6501V68.4601H137.62V68.7201C137.62 70.3901 136.58 72.5101 132.63 72.5101H132.62ZM129.37 65.0401H135.8V64.1901C135.8 62.7301 135 61.1101 132.6 61.1101C130.2 61.1101 129.37 62.7601 129.37 64.1901V65.0401Z" fill="#004FB5"/>
<path d="M140.06 72.25V59.82H141.8L141.94 61.92C142.62 60.55 144.04 59.59 146.34 59.59V61.5H145.99C143.09 61.5 142.01 63.29 142.01 65.55V72.26H140.06V72.25Z" fill="#004FB5"/>
<path d="M156.23 70.8601C155.62 71.8501 154.37 72.5101 152.16 72.5101C149.01 72.5101 147.97 70.8401 147.97 68.7701C147.97 66.3701 149.36 65.0301 152.47 65.0301H156.12V63.9901C156.12 62.4401 155.41 61.1401 153.15 61.1401C151.08 61.1401 150.14 62.0801 150.14 63.1401V63.3301H148.3V63.1401C148.3 61.2601 149.78 59.5601 153.2 59.5601C156.87 59.5601 158.07 61.5601 158.07 64.0601V72.2501H156.33L156.24 70.8601H156.23ZM156.11 67.8201V66.6001H152.74C150.67 66.6001 149.94 67.4001 149.94 68.7201C149.94 69.9401 150.53 70.9301 152.65 70.9301C155.19 70.9301 156.11 69.5901 156.11 67.8201Z" fill="#004FB5"/>
<path d="M167.58 72.25H166.17C162.69 72.25 161.84 70.51 161.84 68.39V61.37H160.05V59.84H161.84V56.59H163.79V59.84H167.18V61.37H163.79V68.27C163.79 69.78 164.4 70.62 166.45 70.62H167.58V72.24V72.25Z" fill="#004FB5"/>
<path d="M176.03 72.25H174.62C171.14 72.25 170.29 70.51 170.29 68.39V61.37H168.5V59.84H170.29V56.59H172.24V59.84H175.63V61.37H172.24V68.27C172.24 69.78 172.85 70.62 174.9 70.62H176.03V72.24V72.25Z" fill="#004FB5"/>
<path d="M186.2 70.8601C185.59 71.8501 184.34 72.5101 182.13 72.5101C178.98 72.5101 177.94 70.8401 177.94 68.7701C177.94 66.3701 179.33 65.0301 182.44 65.0301H186.09V63.9901C186.09 62.4401 185.38 61.1401 183.12 61.1401C181.05 61.1401 180.11 62.0801 180.11 63.1401V63.3301H178.27V63.1401C178.27 61.2601 179.75 59.5601 183.17 59.5601C186.84 59.5601 188.04 61.5601 188.04 64.0601V72.2501H186.3L186.21 70.8601H186.2ZM186.08 67.8201V66.6001H182.71C180.64 66.6001 179.91 67.4001 179.91 68.7201C179.91 69.9401 180.5 70.9301 182.62 70.9301C185.16 70.9301 186.08 69.5901 186.08 67.8201Z" fill="#004FB5"/>
<path d="M201.1 67.9401V68.1801C201.1 70.2301 199.76 72.5101 196.08 72.5101C192.12 72.5101 190.85 69.9401 190.85 67.5901V64.4601C190.85 62.1301 192.12 59.5601 196.08 59.5601C199.82 59.5601 201.07 61.8401 201.07 63.8901V64.1301H199.14V63.8701C199.14 62.6201 198.36 61.1901 196.08 61.1901C193.61 61.1901 192.81 62.9101 192.81 64.4401V67.5901C192.81 69.1401 193.61 70.8601 196.08 70.8601C198.36 70.8601 199.14 69.4201 199.14 68.1801V67.9401H201.09H201.1Z" fill="#004FB5"/>
<path d="M205.74 72.2501H203.79V55.0601H205.74V65.9101L211.39 59.8101H213.74L208.89 65.0101L214.14 72.2401H211.81L207.6 66.3501L205.74 68.3501V72.2301V72.2501Z" fill="#004FB5"/>
<path d="M223.09 63.25V63.0601C223.09 61.9301 222.48 61.0401 220.17 61.0401C218.26 61.0401 217.42 61.8401 217.42 62.9701C217.42 63.9601 218.1 64.4101 219.37 64.6901L222.1 65.3001C223.75 65.6801 225.3 66.5 225.3 68.6C225.3 70.81 223.89 72.5101 220.43 72.5101C216.47 72.5101 215.39 70.93 215.39 69.21V68.95H217.3V69.1601C217.3 70.1501 217.94 70.9701 220.46 70.9701C222.46 70.9701 223.38 70.08 223.38 68.78C223.38 67.7 222.56 67.23 221.52 66.99L218.88 66.4001C216.93 65.9501 215.58 65.2201 215.58 63.0801C215.58 61.1301 217.04 59.55 220.22 59.55C223.87 59.55 224.98 61.17 224.98 63.01V63.25H223.1H223.09Z" fill="#004FB5"/>
</g>
<defs>
<clipPath id="clip0_4503_208">
<rect width="238.14" height="76.49" fill="white"/>
</clipPath>
</defs>
</svg>
